<?xml version="1.0" encoding="utf-8"?>
<!-- Generator: Adobe Illustrator 26.5.0, SVG Export Plug-In . SVG Version: 6.00 Build 0)  -->
<svg version="1.1" id="Layer_1" xmlns="http://www.w3.org/2000/svg" xmlns:xlink="http://www.w3.org/1999/xlink" x="0px" y="0px"
	 viewBox="0 0 24 24" style="enable-background:new 0 0 24 24;" xml:space="preserve">
<g>
	<path d="M0,5.39c0.08-0.2,0.09-0.42,0.21-0.58c2.41,2.39,4.82,4.78,7.24,7.17c-2.42,2.4-4.84,4.79-7.26,7.19
		c-0.11-0.12-0.1-0.36-0.19-0.56C0,14.2,0,9.8,0,5.39z"/>
	<path d="M1.25,3.77c0.24-0.14,0.48-0.18,0.73-0.2c0.09-0.01,0.17-0.01,0.26-0.01c6.51,0,13.01,0,19.52,0
		c0.34,0,0.67,0.04,0.98,0.19c-0.02,0.1-0.1,0.15-0.16,0.2c-3.3,3.31-6.59,6.62-9.89,9.92c-0.46,0.46-0.9,0.46-1.36,0.01
		c-3.3-3.31-6.61-6.63-9.91-9.94C1.36,3.89,1.31,3.83,1.25,3.77z"/>
	<path d="M1.25,20.24c2.42-2.4,4.83-4.78,7.25-7.17c0.61,0.6,1.25,1.25,1.9,1.89c0.71,0.7,1.7,0.87,2.57,0.46
		c0.26-0.12,0.47-0.3,0.67-0.5c0.57-0.58,1.15-1.15,1.72-1.73c0.06-0.06,0.12-0.12,0.15-0.14c2.42,2.39,4.82,4.78,7.25,7.18
		c-0.23,0.15-0.48,0.18-0.72,0.21c-0.1,0.01-0.2,0.01-0.3,0.01c-6.49,0-12.98,0-19.47,0C1.92,20.44,1.58,20.4,1.25,20.24z"/>
	<path d="M23.8,19.2c-2.42-2.4-4.83-4.78-7.25-7.18c2.43-2.4,4.84-4.8,7.26-7.18C23.92,5.05,24,5.33,24,5.63c0,4.25,0,8.5,0,12.74
		C24,18.67,23.92,18.94,23.8,19.2z"/>
</g>
<g>
	<path d="M88,21.22c0-6.15,0-12.31,0-18.46c0.02-0.08,0.05-0.16,0.07-0.25c0.26-1.02,0.86-1.76,1.81-2.23
		c0.28-0.14,0.59-0.2,0.89-0.29c6.15,0,12.31,0,18.46,0c0.07,0.02,0.15,0.05,0.22,0.06c1.54,0.37,2.55,1.65,2.55,3.23
		c0,5.82,0,11.65,0,17.47c0,1.79-1.45,3.24-3.24,3.24c-5.85,0-11.69,0.01-17.54,0c-1.29,0-2.24-0.63-2.86-1.76
		C88.18,21.92,88.1,21.57,88,21.22z M98.56,11.49c0.04-0.09,0.13-0.11,0.2-0.15c1.31-0.81,1.35-2.76,0.08-3.56
		c-0.47-0.29-0.98-0.45-1.53-0.45c-1.5-0.01-3,0-4.5,0c-0.29,0-0.3,0.01-0.3,0.31c0,2.85,0,5.7,0,8.55c0,0.29,0.02,0.31,0.3,0.31
		c1.44,0,2.89,0,4.33,0c0.31,0,0.63-0.03,0.93-0.12c1.11-0.32,1.99-0.98,2.08-2.13c0.1-1.2-0.11-2.01-1.4-2.63
		C98.69,11.58,98.6,11.57,98.56,11.49z M105.01,13.62c0.71,0,1.42,0,2.13,0c0.3,0,0.33-0.04,0.34-0.34
		c0.01-0.31-0.03-0.62-0.09-0.93c-0.39-1.8-2.1-3-3.82-2.66c-1.34,0.26-2.22,1.08-2.62,2.37c-0.41,1.32-0.17,2.54,0.77,3.58
		c1.1,1.21,2.82,1.27,4.11,0.67c0.69-0.32,1.14-0.88,1.41-1.59c0.06-0.17,0.02-0.25-0.17-0.25c-0.2,0.01-0.41,0.02-0.61,0
		c-0.42-0.04-0.73,0.06-1.04,0.4c-0.45,0.51-1.08,0.6-1.73,0.39c-0.61-0.2-0.96-0.65-1.06-1.28c-0.05-0.29,0-0.35,0.29-0.35
		C103.62,13.62,104.31,13.62,105.01,13.62z M104.11,8.81c0.43,0,0.86,0,1.29,0c0.66,0,0.58,0.07,0.59-0.59c0-0.23-0.08-0.3-0.3-0.3
		c-0.94,0.01-1.89,0-2.83,0c-0.67,0-0.59-0.09-0.6,0.62c0,0.19,0.07,0.26,0.26,0.26C103.04,8.8,103.58,8.81,104.11,8.81z"/>
	<path d="M95.83,14.96c-0.36,0-0.72,0-1.08,0c-0.17,0-0.24-0.07-0.24-0.24c0-0.69,0-1.39,0-2.08c0-0.16,0.07-0.23,0.23-0.23
		c0.7,0,1.4,0,2.11,0.01c0.19,0,0.39,0.06,0.57,0.12c0.5,0.19,0.78,0.59,0.8,1.13c0.02,0.51-0.24,0.92-0.72,1.13
		c-0.21,0.09-0.43,0.15-0.66,0.15C96.5,14.96,96.16,14.96,95.83,14.96C95.83,14.96,95.83,14.96,95.83,14.96z"/>
	<path d="M95.71,11.02c-0.31,0-0.62-0.01-0.94,0c-0.18,0-0.27-0.06-0.27-0.26c0.01-0.55,0-1.09,0-1.64c0-0.17,0.06-0.27,0.24-0.27
		c0.69,0.01,1.39-0.05,2.08,0.04c0.77,0.09,1.19,0.7,0.97,1.39c-0.14,0.43-0.56,0.71-1.12,0.73C96.35,11.02,96.03,11.02,95.71,11.02
		C95.71,11.02,95.71,11.02,95.71,11.02z"/>
	<path d="M104.11,12.47c-0.41,0-0.81,0-1.22,0c-0.25,0-0.28-0.04-0.23-0.27c0.16-0.7,0.79-1.21,1.48-1.19
		c0.68,0.01,1.29,0.54,1.43,1.23c0.03,0.17-0.02,0.23-0.18,0.23C104.97,12.47,104.54,12.47,104.11,12.47
		C104.11,12.47,104.11,12.47,104.11,12.47z"/>
</g>
<g>
	<path d="M44,20.92c0-5.94,0-11.88,0-17.83c0.05-0.06,0.05-0.13,0.06-0.2c0.14-1.36,1.17-2.51,2.52-2.8c0.17-0.04,0.36,0,0.52-0.1
		c5.94,0,11.88,0,17.83,0c0.12,0.09,0.27,0.05,0.41,0.08C66.93,0.41,68,1.71,68,3.35c0,5.77,0,11.54,0,17.31
		c0,0.3-0.04,0.61-0.12,0.9C67.5,23.03,66.21,24,64.64,24c-5.65,0-11.3,0-16.95,0c-0.25,0-0.5-0.01-0.75-0.03
		c-1.4-0.14-2.54-1.17-2.83-2.54C44.06,21.26,44.1,21.07,44,20.92z M56.82,10.53c0-0.18,0-0.36,0-0.53
		c-0.01-0.36-0.2-0.57-0.57-0.57c-0.7-0.01-1.41-0.01-2.11,0c-0.36,0-0.55,0.2-0.55,0.56c0,3,0,6,0,9c0,0.38,0.17,0.55,0.56,0.55
		c0.66,0,1.33,0,1.99,0c0.51,0,0.67-0.16,0.67-0.68c0-1.54,0-3.08,0-4.62c0-0.58,0.16-1.13,0.51-1.6c0.39-0.51,0.93-0.64,1.53-0.55
		c0.57,0.08,0.93,0.43,1.13,0.96c0.18,0.5,0.18,1.01,0.18,1.52c0,1.45,0,2.89,0,4.34c0,0.45,0.18,0.62,0.63,0.62
		c0.71,0,1.42,0,2.13,0c0.37,0,0.55-0.17,0.55-0.54c0-1.78,0.01-3.56-0.01-5.35c0-0.6-0.08-1.2-0.24-1.78
		c-0.3-1.12-0.89-1.99-2.04-2.38c-0.76-0.25-1.53-0.27-2.31-0.15C58.06,9.48,57.37,9.85,56.82,10.53z M49,14.49
		c0,1.48,0,2.95,0,4.43c0,0.45,0.18,0.62,0.63,0.62c0.65,0,1.3,0,1.95,0c0.46,0,0.65-0.19,0.65-0.66c0-2.93,0-5.86,0-8.79
		c0-0.46-0.21-0.67-0.68-0.67c-0.63,0-1.25,0-1.88,0c-0.48,0-0.67,0.19-0.67,0.66C49,11.55,49,13.02,49,14.49z M50.62,4.48
		c-1.16,0-2.09,0.9-2.09,2.04c0,1.16,0.92,2.1,2.07,2.1c1.12,0.01,2.09-0.95,2.09-2.07C52.69,5.42,51.76,4.49,50.62,4.48z"/>
</g>
</svg>
